<svg width="600" height="200" viewBox="0 0 600 200" fill="none" xmlns="http://www.w3.org/2000/svg">
<rect width="600" height="200" fill="#1E1E1E"/>
<g clip-path="url(#clip0_0_1)">
<rect width="600" height="200" fill="#090B10"/>
<path d="M126.975 122V69.65H158.175V75.2H133.275V92.75H156V98.3H133.275V122H126.975ZM171.27 74.225C169.97 74.225 169.02 73.925 168.42 73.325C167.87 72.675 167.595 71.85 167.595 70.85V69.875C167.595 68.875 167.87 68.075 168.42 67.475C169.02 66.825 169.97 66.5 171.27 66.5C172.57 66.5 173.495 66.825 174.045 67.475C174.645 68.075 174.945 68.875 174.945 69.875V70.85C174.945 71.85 174.645 72.675 174.045 73.325C173.495 73.925 172.57 74.225 171.27 74.225ZM168.27 83.3H174.27V122H168.27V83.3ZM187.02 122V83.3H193.02V89.6H193.32C194.27 87.4 195.595 85.65 197.295 84.35C199.045 83.05 201.37 82.4 204.27 82.4C208.27 82.4 211.42 83.7 213.72 86.3C216.07 88.85 217.245 92.475 217.245 97.175V122H211.245V98.225C211.245 91.275 208.32 87.8 202.47 87.8C201.27 87.8 200.095 87.95 198.945 88.25C197.845 88.55 196.845 89 195.945 89.6C195.045 90.2 194.32 90.975 193.77 91.925C193.27 92.825 193.02 93.9 193.02 95.15V122H187.02ZM244.046 122.9C241.346 122.9 238.921 122.425 236.771 121.475C234.621 120.525 232.796 119.175 231.296 117.425C229.846 115.675 228.721 113.55 227.921 111.05C227.171 108.55 226.796 105.75 226.796 102.65C226.796 99.55 227.171 96.75 227.921 94.25C228.721 91.75 229.846 89.625 231.296 87.875C232.796 86.125 234.621 84.775 236.771 83.825C238.921 82.875 241.346 82.4 244.046 82.4C247.896 82.4 250.971 83.25 253.271 84.95C255.621 86.6 257.371 88.775 258.521 91.475L253.496 94.025C252.796 92.025 251.646 90.475 250.046 89.375C248.446 88.275 246.446 87.725 244.046 87.725C242.246 87.725 240.671 88.025 239.321 88.625C237.971 89.175 236.846 89.975 235.946 91.025C235.046 92.025 234.371 93.25 233.921 94.7C233.471 96.1 233.246 97.65 233.246 99.35V105.95C233.246 109.35 234.146 112.15 235.946 114.35C237.796 116.5 240.496 117.575 244.046 117.575C248.896 117.575 252.396 115.325 254.546 110.825L258.896 113.75C257.646 116.55 255.771 118.775 253.271 120.425C250.821 122.075 247.746 122.9 244.046 122.9ZM267.366 66.5H273.366V101.675H273.666L279.591 95.075L290.541 83.3H297.816L283.491 98.6L299.241 122H291.966L279.141 102.275L273.366 108.2V122H267.366V66.5ZM320.222 122.9C317.572 122.9 315.172 122.425 313.022 121.475C310.922 120.525 309.097 119.175 307.547 117.425C306.047 115.625 304.872 113.5 304.022 111.05C303.222 108.55 302.822 105.75 302.822 102.65C302.822 99.6 303.222 96.825 304.022 94.325C304.872 91.825 306.047 89.7 307.547 87.95C309.097 86.15 310.922 84.775 313.022 83.825C315.172 82.875 317.572 82.4 320.222 82.4C322.822 82.4 325.147 82.875 327.197 83.825C329.247 84.775 330.997 86.1 332.447 87.8C333.897 89.45 334.997 91.425 335.747 93.725C336.547 96.025 336.947 98.55 336.947 101.3V104.15H309.122V105.95C309.122 107.6 309.372 109.15 309.872 110.6C310.422 112 311.172 113.225 312.122 114.275C313.122 115.325 314.322 116.15 315.722 116.75C317.172 117.35 318.797 117.65 320.597 117.65C323.047 117.65 325.172 117.075 326.972 115.925C328.822 114.775 330.247 113.125 331.247 110.975L335.522 114.05C334.272 116.7 332.322 118.85 329.672 120.5C327.022 122.1 323.872 122.9 320.222 122.9ZM320.222 87.425C318.572 87.425 317.072 87.725 315.722 88.325C314.372 88.875 313.197 89.675 312.197 90.725C311.247 91.775 310.497 93.025 309.947 94.475C309.397 95.875 309.122 97.425 309.122 99.125V99.65H330.497V98.825C330.497 95.375 329.547 92.625 327.647 90.575C325.797 88.475 323.322 87.425 320.222 87.425ZM349.194 122.9C347.594 122.9 346.419 122.5 345.669 121.7C344.969 120.9 344.619 119.85 344.619 118.55V117.575C344.619 116.275 344.969 115.225 345.669 114.425C346.419 113.625 347.594 113.225 349.194 113.225C350.794 113.225 351.944 113.625 352.644 114.425C353.394 115.225 353.769 116.275 353.769 117.575V118.55C353.769 119.85 353.394 120.9 352.644 121.7C351.944 122.5 350.794 122.9 349.194 122.9ZM389.089 115.7H388.789C386.439 120.5 382.664 122.9 377.464 122.9C375.064 122.9 372.889 122.425 370.939 121.475C368.989 120.525 367.314 119.175 365.914 117.425C364.564 115.675 363.514 113.55 362.764 111.05C362.064 108.55 361.714 105.75 361.714 102.65C361.714 99.55 362.064 96.75 362.764 94.25C363.514 91.75 364.564 89.625 365.914 87.875C367.314 86.125 368.989 84.775 370.939 83.825C372.889 82.875 375.064 82.4 377.464 82.4C380.164 82.4 382.464 83 384.364 84.2C386.314 85.35 387.789 87.15 388.789 89.6H389.089V66.5H395.089V122H389.089V115.7ZM379.114 117.5C380.464 117.5 381.739 117.325 382.939 116.975C384.189 116.625 385.264 116.125 386.164 115.475C387.064 114.775 387.764 113.95 388.264 113C388.814 112 389.089 110.875 389.089 109.625V95.225C389.089 94.175 388.814 93.2 388.264 92.3C387.764 91.35 387.064 90.55 386.164 89.9C385.264 89.25 384.189 88.75 382.939 88.4C381.739 88 380.464 87.8 379.114 87.8C375.714 87.8 373.039 88.875 371.089 91.025C369.139 93.125 368.164 95.9 368.164 99.35V105.95C368.164 109.4 369.139 112.2 371.089 114.35C373.039 116.45 375.714 117.5 379.114 117.5ZM422.395 122.9C419.745 122.9 417.345 122.425 415.195 121.475C413.095 120.525 411.27 119.175 409.72 117.425C408.22 115.625 407.045 113.5 406.195 111.05C405.395 108.55 404.995 105.75 404.995 102.65C404.995 99.6 405.395 96.825 406.195 94.325C407.045 91.825 408.22 89.7 409.72 87.95C411.27 86.15 413.095 84.775 415.195 83.825C417.345 82.875 419.745 82.4 422.395 82.4C424.995 82.4 427.32 82.875 429.37 83.825C431.42 84.775 433.17 86.1 434.62 87.8C436.07 89.45 437.17 91.425 437.92 93.725C438.72 96.025 439.12 98.55 439.12 101.3V104.15H411.295V105.95C411.295 107.6 411.545 109.15 412.045 110.6C412.595 112 413.345 113.225 414.295 114.275C415.295 115.325 416.495 116.15 417.895 116.75C419.345 117.35 420.97 117.65 422.77 117.65C425.22 117.65 427.345 117.075 429.145 115.925C430.995 114.775 432.42 113.125 433.42 110.975L437.695 114.05C436.445 116.7 434.495 118.85 431.845 120.5C429.195 122.1 426.045 122.9 422.395 122.9ZM422.395 87.425C420.745 87.425 419.245 87.725 417.895 88.325C416.545 88.875 415.37 89.675 414.37 90.725C413.42 91.775 412.67 93.025 412.12 94.475C411.57 95.875 411.295 97.425 411.295 99.125V99.65H432.67V98.825C432.67 95.375 431.72 92.625 429.82 90.575C427.97 88.475 425.495 87.425 422.395 87.425ZM456.971 122L443.396 83.3H449.396L456.146 102.5L460.346 115.7H460.721L464.921 102.5L471.821 83.3H477.596L463.946 122H456.971Z" fill="#EEFFFF"/>
<path d="M235.491 164.263C116.522 164.263 73.0941 103 0 103V200H118.357H236.715H504.931H734V174.474C678.033 174.474 552.946 138.737 489.333 138.737C441.929 138.737 318.372 164.263 235.491 164.263Z" fill="#292D3E"/>
<path d="M235.492 164.263C116.523 164.263 73.0942 103 0 103V128.526C48.9333 128.526 129.368 189.789 235.492 189.789C341.616 189.789 443.153 164.263 489.333 164.263C552.947 164.263 678.033 200 734 200V174.474C678.033 174.474 552.947 138.737 489.333 138.737C441.929 138.737 318.373 164.263 235.492 164.263Z" fill="url(#paint0_linear_0_1)"/>
</g>
<defs>
<linearGradient id="paint0_linear_0_1" x1="367.777" y1="103.008" x2="363.449" y2="312.25" gradientUnits="userSpaceOnUse">
<stop offset="0.297576" stop-color="#80CBC4"/>
<stop offset="0.803275" stop-color="#FFCC00" stop-opacity="0.15"/>
</linearGradient>
<clipPath id="clip0_0_1">
<rect width="600" height="200" fill="white"/>
</clipPath>
</defs>
</svg>
